<svg xmlns="http://www.w3.org/2000/svg" width="1100" height="520" viewBox="0 0 1100 520">
<rect width="100%" height="100%" fill="#f7f4ee"/>
<text x="30" y="34" font-family="Segoe UI, Arial" font-size="22" fill="#1c2430">Build Concentration</text>
<line x1="80" y1="410" x2="1070" y2="410" stroke="#30343b" stroke-width="1"/>
<rect x="93.2" y="85.48" width="56.1" height="324.52" fill="#2f7d6d" rx="2"/>
<text x="121.25" y="438" font-family="Segoe UI, Arial" font-size="11" fill="#26313f" text-anchor="middle" transform="rotate(-35 121.25 438)">clean-hands</text>
<text x="121.25" y="80.48" font-family="Segoe UI, Arial" font-size="10" fill="#26313f" text-anchor="middle">4.636%</text>
<rect x="175.7" y="169.17" width="56.1" height="240.83" fill="#2f7d6d" rx="2"/>
<text x="203.75" y="438" font-family="Segoe UI, Arial" font-size="11" fill="#26313f" text-anchor="middle" transform="rotate(-35 203.75 438)">opening-tell</text>
<text x="203.75" y="164.17" font-family="Segoe UI, Arial" font-size="10" fill="#26313f" text-anchor="middle">3.44%</text>
<rect x="258.2" y="216.69" width="56.1" height="193.31" fill="#2f7d6d" rx="2"/>
<text x="286.25" y="438" font-family="Segoe UI, Arial" font-size="11" fill="#26313f" text-anchor="middle" transform="rotate(-35 286.25 438)">high-roller</text>
<text x="286.25" y="211.69" font-family="Segoe UI, Arial" font-size="10" fill="#26313f" text-anchor="middle">2.762%</text>
<rect x="340.7" y="230.58" width="56.1" height="179.42" fill="#2f7d6d" rx="2"/>
<text x="368.75" y="438" font-family="Segoe UI, Arial" font-size="11" fill="#26313f" text-anchor="middle" transform="rotate(-35 368.75 438)">interest-ledger</text>
<text x="368.75" y="225.58" font-family="Segoe UI, Arial" font-size="10" fill="#26313f" text-anchor="middle">2.563%</text>
<rect x="423.2" y="311.45" width="56.1" height="98.55" fill="#2f7d6d" rx="2"/>
<text x="451.25" y="438" font-family="Segoe UI, Arial" font-size="11" fill="#26313f" text-anchor="middle" transform="rotate(-35 451.25 438)">clean-hands + soft-footsteps</text>
<text x="451.25" y="306.45" font-family="Segoe UI, Arial" font-size="10" fill="#26313f" text-anchor="middle">1.408%</text>
<rect x="505.7" y="339.55" width="56.1" height="70.45" fill="#2f7d6d" rx="2"/>
<text x="533.75" y="438" font-family="Segoe UI, Arial" font-size="11" fill="#26313f" text-anchor="middle" transform="rotate(-35 533.75 438)">clean-hands + low-profile</text>
<text x="533.75" y="334.55" font-family="Segoe UI, Arial" font-size="10" fill="#26313f" text-anchor="middle">1.006%</text>
<rect x="588.2" y="355.23" width="56.1" height="54.77" fill="#2f7d6d" rx="2"/>
<text x="616.25" y="438" font-family="Segoe UI, Arial" font-size="11" fill="#26313f" text-anchor="middle" transform="rotate(-35 616.25 438)">clean-hands + opening-tell</text>
<text x="616.25" y="350.23" font-family="Segoe UI, Arial" font-size="10" fill="#26313f" text-anchor="middle">0.782%</text>
<rect x="670.7" y="368.78" width="56.1" height="41.22" fill="#2f7d6d" rx="2"/>
<text x="698.75" y="438" font-family="Segoe UI, Arial" font-size="11" fill="#26313f" text-anchor="middle" transform="rotate(-35 698.75 438)">high-roller + small-ball</text>
<text x="698.75" y="363.78" font-family="Segoe UI, Arial" font-size="10" fill="#26313f" text-anchor="middle">0.589%</text>
<rect x="753.2" y="372.1" width="56.1" height="37.9" fill="#2f7d6d" rx="2"/>
<text x="781.25" y="438" font-family="Segoe UI, Arial" font-size="11" fill="#26313f" text-anchor="middle" transform="rotate(-35 781.25 438)">high-roller + banker-bias</text>
<text x="781.25" y="367.1" font-family="Segoe UI, Arial" font-size="10" fill="#26313f" text-anchor="middle">0.541%</text>
<rect x="835.7" y="373.95" width="56.1" height="36.05" fill="#2f7d6d" rx="2"/>
<text x="863.75" y="438" font-family="Segoe UI, Arial" font-size="11" fill="#26313f" text-anchor="middle" transform="rotate(-35 863.75 438)">lucky-chip + interest-ledger</text>
<text x="863.75" y="368.95" font-family="Segoe UI, Arial" font-size="10" fill="#26313f" text-anchor="middle">0.515%</text>
<rect x="918.2" y="377.81" width="56.1" height="32.19" fill="#2f7d6d" rx="2"/>
<text x="946.25" y="438" font-family="Segoe UI, Arial" font-size="11" fill="#26313f" text-anchor="middle" transform="rotate(-35 946.25 438)">flat-better + high-roller</text>
<text x="946.25" y="372.81" font-family="Segoe UI, Arial" font-size="10" fill="#26313f" text-anchor="middle">0.46%</text>
<rect x="1000.7" y="382.08" width="56.1" height="27.92" fill="#2f7d6d" rx="2"/>
<text x="1028.75" y="438" font-family="Segoe UI, Arial" font-size="11" fill="#26313f" text-anchor="middle" transform="rotate(-35 1028.75 438)">burn-notice</text>
<text x="1028.75" y="377.08" font-family="Segoe UI, Arial" font-size="10" fill="#26313f" text-anchor="middle">0.399%</text>
</svg>
