<svg xmlns="http://www.w3.org/2000/svg" width="1100" height="520" viewBox="0 0 1100 520">
<rect width="100%" height="100%" fill="#f7f4ee"/>
<text x="30" y="34" font-family="Segoe UI, Arial" font-size="22" fill="#1c2430">Failure Hazard By Stage</text>
<line x1="80" y1="410" x2="1070" y2="410" stroke="#30343b" stroke-width="1"/>
<rect x="95.84" y="332.38" width="67.32" height="77.62" fill="#2f7d6d" rx="2"/>
<text x="129.5" y="438" font-family="Segoe UI, Arial" font-size="11" fill="#26313f" text-anchor="middle" transform="rotate(-35 129.5 438)">S1</text>
<text x="129.5" y="327.38" font-family="Segoe UI, Arial" font-size="10" fill="#26313f" text-anchor="middle">10.934%</text>
<rect x="194.84" y="291.31" width="67.32" height="118.69" fill="#2f7d6d" rx="2"/>
<text x="228.5" y="438" font-family="Segoe UI, Arial" font-size="11" fill="#26313f" text-anchor="middle" transform="rotate(-35 228.5 438)">S2</text>
<text x="228.5" y="286.31" font-family="Segoe UI, Arial" font-size="10" fill="#26313f" text-anchor="middle">16.719%</text>
<rect x="293.84" y="146.51" width="67.32" height="263.49" fill="#2f7d6d" rx="2"/>
<text x="327.5" y="438" font-family="Segoe UI, Arial" font-size="11" fill="#26313f" text-anchor="middle" transform="rotate(-35 327.5 438)">S3</text>
<text x="327.5" y="141.51" font-family="Segoe UI, Arial" font-size="10" fill="#26313f" text-anchor="middle">37.118%</text>
<rect x="392.84" y="324.12" width="67.32" height="85.88" fill="#2f7d6d" rx="2"/>
<text x="426.5" y="438" font-family="Segoe UI, Arial" font-size="11" fill="#26313f" text-anchor="middle" transform="rotate(-35 426.5 438)">S4</text>
<text x="426.5" y="319.12" font-family="Segoe UI, Arial" font-size="10" fill="#26313f" text-anchor="middle">12.098%</text>
<rect x="491.84" y="308.45" width="67.32" height="101.55" fill="#2f7d6d" rx="2"/>
<text x="525.5" y="438" font-family="Segoe UI, Arial" font-size="11" fill="#26313f" text-anchor="middle" transform="rotate(-35 525.5 438)">S5</text>
<text x="525.5" y="303.45" font-family="Segoe UI, Arial" font-size="10" fill="#26313f" text-anchor="middle">14.305%</text>
<rect x="590.84" y="365.86" width="67.32" height="44.14" fill="#2f7d6d" rx="2"/>
<text x="624.5" y="438" font-family="Segoe UI, Arial" font-size="11" fill="#26313f" text-anchor="middle" transform="rotate(-35 624.5 438)">S6</text>
<text x="624.5" y="360.86" font-family="Segoe UI, Arial" font-size="10" fill="#26313f" text-anchor="middle">6.218%</text>
<rect x="689.84" y="352.58" width="67.32" height="57.42" fill="#2f7d6d" rx="2"/>
<text x="723.5" y="438" font-family="Segoe UI, Arial" font-size="11" fill="#26313f" text-anchor="middle" transform="rotate(-35 723.5 438)">S7</text>
<text x="723.5" y="347.58" font-family="Segoe UI, Arial" font-size="10" fill="#26313f" text-anchor="middle">8.089%</text>
<rect x="788.84" y="333.95" width="67.32" height="76.05" fill="#2f7d6d" rx="2"/>
<text x="822.5" y="438" font-family="Segoe UI, Arial" font-size="11" fill="#26313f" text-anchor="middle" transform="rotate(-35 822.5 438)">S8</text>
<text x="822.5" y="328.95" font-family="Segoe UI, Arial" font-size="10" fill="#26313f" text-anchor="middle">10.714%</text>
<rect x="887.84" y="330.23" width="67.32" height="79.77" fill="#2f7d6d" rx="2"/>
<text x="921.5" y="438" font-family="Segoe UI, Arial" font-size="11" fill="#26313f" text-anchor="middle" transform="rotate(-35 921.5 438)">S9</text>
<text x="921.5" y="325.23" font-family="Segoe UI, Arial" font-size="10" fill="#26313f" text-anchor="middle">11.237%</text>
<rect x="986.84" y="60" width="67.32" height="350" fill="#2f7d6d" rx="2"/>
<text x="1020.5" y="438" font-family="Segoe UI, Arial" font-size="11" fill="#26313f" text-anchor="middle" transform="rotate(-35 1020.5 438)">S10</text>
<text x="1020.5" y="55" font-family="Segoe UI, Arial" font-size="10" fill="#26313f" text-anchor="middle">49.304%</text>
</svg>
