<svg xmlns="http://www.w3.org/2000/svg" width="900" height="560" viewBox="0 0 900 560">
<rect width="100%" height="100%" fill="#f7f4ee"/>
<text x="30" y="34" font-family="Segoe UI, Arial" font-size="22" fill="#1c2430">Trigger Rate vs Impact</text>
<line x1="80" y1="490" x2="860" y2="490" stroke="#30343b"/>
<line x1="80" y1="60" x2="80" y2="490" stroke="#30343b"/>
<circle cx="80.25" cy="442.1" r="4" fill="#7b5ea7" opacity="0.78"><title>backroom-banco 0.002,-0.067%</title></circle>
<circle cx="116.98" cy="461.7" r="4" fill="#7b5ea7" opacity="0.78"><title>banco-battery 0.247,-0.667%</title></circle>
<circle cx="91.94" cy="427.95" r="4" fill="#7b5ea7" opacity="0.78"><title>banco-press 0.08,0.367%</title></circle>
<circle cx="83.8" cy="449.72" r="4" fill="#7b5ea7" opacity="0.78"><title>banker-anchor 0.025,-0.3%</title></circle>
<circle cx="80" cy="439.92" r="4" fill="#7b5ea7" opacity="0.78"><title>banker-lock 0,0%</title></circle>
<circle cx="101.49" cy="414.89" r="4" fill="#7b5ea7" opacity="0.78"><title>commission-dodge 0.143,0.767%</title></circle>
<circle cx="147.56" cy="437.75" r="4" fill="#7b5ea7" opacity="0.78"><title>dealers-nod 0.451,0.067%</title></circle>
<circle cx="80.25" cy="484.56" r="4" fill="#7b5ea7" opacity="0.78"><title>house-favorite 0.002,-1.367%</title></circle>
<circle cx="80" cy="432.3" r="4" fill="#7b5ea7" opacity="0.78"><title>loyal-customer 0,0.233%</title></circle>
<circle cx="89.69" cy="387.67" r="4" fill="#7b5ea7" opacity="0.78"><title>careful-hands 0.065,1.6%</title></circle>
<circle cx="138.21" cy="432.3" r="4" fill="#7b5ea7" opacity="0.78"><title>flat-better 0.388,0.233%</title></circle>
<circle cx="107.13" cy="472.58" r="4" fill="#7b5ea7" opacity="0.78"><title>high-roller 0.181,-1%</title></circle>
<circle cx="81" cy="429.04" r="4" fill="#7b5ea7" opacity="0.78"><title>insurance-marker 0.007,0.333%</title></circle>
<circle cx="80.35" cy="461.7" r="4" fill="#7b5ea7" opacity="0.78"><title>loss-limit 0.002,-0.667%</title></circle>
<circle cx="80" cy="439.92" r="4" fill="#7b5ea7" opacity="0.78"><title>overbet-permit 0,0%</title></circle>
<circle cx="80.1" cy="448.63" r="4" fill="#7b5ea7" opacity="0.78"><title>parlay-slip 0.001,-0.267%</title></circle>
<circle cx="90.19" cy="435.57" r="4" fill="#7b5ea7" opacity="0.78"><title>press-edge 0.068,0.133%</title></circle>
<circle cx="80.85" cy="446.46" r="4" fill="#7b5ea7" opacity="0.78"><title>safe-marker 0.006,-0.2%</title></circle>
<circle cx="165.45" cy="464.96" r="4" fill="#7b5ea7" opacity="0.78"><title>small-ball 0.57,-0.767%</title></circle>
<circle cx="80" cy="446.46" r="4" fill="#7b5ea7" opacity="0.78"><title>boss-bounty 0,-0.2%</title></circle>
<circle cx="80.35" cy="444.28" r="4" fill="#7b5ea7" opacity="0.78"><title>countermeasure 0.002,-0.133%</title></circle>
<circle cx="80" cy="452.99" r="4" fill="#7b5ea7" opacity="0.78"><title>final-table-pass 0,-0.4%</title></circle>
<circle cx="80" cy="441.01" r="4" fill="#7b5ea7" opacity="0.78"><title>house-crack 0,-0.033%</title></circle>
<circle cx="80" cy="436.66" r="4" fill="#7b5ea7" opacity="0.78"><title>inside-job 0,0.1%</title></circle>
<circle cx="82.7" cy="452.99" r="4" fill="#7b5ea7" opacity="0.78"><title>burn-notice 0.018,-0.4%</title></circle>
<circle cx="80" cy="426.86" r="4" fill="#7b5ea7" opacity="0.78"><title>card-delay 0,0.4%</title></circle>
<circle cx="80" cy="439.92" r="4" fill="#7b5ea7" opacity="0.78"><title>control-burn 0,0%</title></circle>
<circle cx="80.35" cy="392.03" r="4" fill="#7b5ea7" opacity="0.78"><title>dealer-slip 0.002,1.467%</title></circle>
<circle cx="80" cy="439.92" r="4" fill="#7b5ea7" opacity="0.78"><title>dealers-thumb 0,0%</title></circle>
<circle cx="81.95" cy="441.01" r="4" fill="#7b5ea7" opacity="0.78"><title>discard-favor 0.013,-0.033%</title></circle>
<circle cx="80" cy="439.92" r="4" fill="#7b5ea7" opacity="0.78"><title>hot-cut 0,0%</title></circle>
<circle cx="80.15" cy="433.39" r="4" fill="#7b5ea7" opacity="0.78"><title>shoe-pocket 0.001,0.2%</title></circle>
<circle cx="83.65" cy="448.63" r="4" fill="#7b5ea7" opacity="0.78"><title>slipstream 0.024,-0.267%</title></circle>
<circle cx="83.9" cy="422.51" r="4" fill="#7b5ea7" opacity="0.78"><title>soft-cut 0.026,0.533%</title></circle>
<circle cx="101.39" cy="415.97" r="4" fill="#7b5ea7" opacity="0.78"><title>banker-bias 0.143,0.733%</title></circle>
<circle cx="123.22" cy="309.29" r="4" fill="#7b5ea7" opacity="0.78"><title>clean-hands 0.288,4%</title></circle>
<circle cx="165.5" cy="446.46" r="4" fill="#7b5ea7" opacity="0.78"><title>lucky-chip 0.57,-0.2%</title></circle>
<circle cx="860" cy="60" r="4" fill="#7b5ea7" opacity="0.78"><title>opening-tell 5.203,11.633%</title></circle>
<circle cx="89.99" cy="439.92" r="4" fill="#7b5ea7" opacity="0.78"><title>player-surge 0.067,0%</title></circle>
<circle cx="88.99" cy="434.48" r="4" fill="#7b5ea7" opacity="0.78"><title>tie-insurance 0.06,0.167%</title></circle>
<circle cx="107.83" cy="424.68" r="4" fill="#7b5ea7" opacity="0.78"><title>countertrend-plus 0.186,0.467%</title></circle>
<circle cx="399.8" cy="490" r="4" fill="#7b5ea7" opacity="0.78"><title>false-read 2.133,-1.533%</title></circle>
<circle cx="88.29" cy="461.7" r="4" fill="#7b5ea7" opacity="0.78"><title>mirror-punish 0.055,-0.667%</title></circle>
<circle cx="80" cy="429.04" r="4" fill="#7b5ea7" opacity="0.78"><title>reverse-count 0,0.333%</title></circle>
<circle cx="80" cy="437.75" r="4" fill="#7b5ea7" opacity="0.78"><title>turnaround-table 0,0.067%</title></circle>
<circle cx="80" cy="439.92" r="4" fill="#7b5ea7" opacity="0.78"><title>credit-line 0,0%</title></circle>
<circle cx="80.5" cy="452.99" r="4" fill="#7b5ea7" opacity="0.78"><title>debt-collector 0.003,-0.4%</title></circle>
<circle cx="96.54" cy="446.46" r="4" fill="#7b5ea7" opacity="0.78"><title>emergency-marker 0.11,-0.2%</title></circle>
<circle cx="83.9" cy="417.06" r="4" fill="#7b5ea7" opacity="0.78"><title>last-dollar 0.026,0.7%</title></circle>
<circle cx="81.8" cy="433.39" r="4" fill="#7b5ea7" opacity="0.78"><title>marker-chain 0.012,0.2%</title></circle>
<circle cx="80" cy="448.63" r="4" fill="#7b5ea7" opacity="0.78"><title>boss-bonus 0,-0.267%</title></circle>
<circle cx="80" cy="441.01" r="4" fill="#7b5ea7" opacity="0.78"><title>chip-stipend 0,-0.033%</title></circle>
<circle cx="97.74" cy="413.8" r="4" fill="#7b5ea7" opacity="0.78"><title>comp-points 0.118,0.8%</title></circle>
<circle cx="80" cy="457.34" r="4" fill="#7b5ea7" opacity="0.78"><title>coupon-book 0,-0.533%</title></circle>
<circle cx="80" cy="459.52" r="4" fill="#7b5ea7" opacity="0.78"><title>duplicate-finder 0,-0.6%</title></circle>
<circle cx="80" cy="441.01" r="4" fill="#7b5ea7" opacity="0.78"><title>freeze-discount 0,-0.033%</title></circle>
<circle cx="113.38" cy="415.97" r="4" fill="#7b5ea7" opacity="0.78"><title>interest-ledger 0.223,0.733%</title></circle>
<circle cx="80" cy="430.13" r="4" fill="#7b5ea7" opacity="0.78"><title>sellback 0,0.3%</title></circle>
<circle cx="80" cy="408.35" r="4" fill="#7b5ea7" opacity="0.78"><title>shop-regular 0,0.967%</title></circle>
<circle cx="80" cy="466.05" r="4" fill="#7b5ea7" opacity="0.78"><title>closer 0,-0.8%</title></circle>
<circle cx="80" cy="443.19" r="4" fill="#7b5ea7" opacity="0.78"><title>crown-hand 0,-0.1%</title></circle>
<circle cx="80" cy="438.84" r="4" fill="#7b5ea7" opacity="0.78"><title>house-breaker 0,0.033%</title></circle>
<circle cx="80" cy="464.96" r="4" fill="#7b5ea7" opacity="0.78"><title>last-look 0,-0.767%</title></circle>
<circle cx="80" cy="442.1" r="4" fill="#7b5ea7" opacity="0.78"><title>redemption-hand 0,-0.067%</title></circle>
<circle cx="80" cy="427.95" r="4" fill="#7b5ea7" opacity="0.78"><title>backroom-pass 0,0.367%</title></circle>
<circle cx="80" cy="437.75" r="4" fill="#7b5ea7" opacity="0.78"><title>camera-blindspot 0,0.067%</title></circle>
<circle cx="80" cy="439.92" r="4" fill="#7b5ea7" opacity="0.78"><title>cool-customer 0,0%</title></circle>
<circle cx="80.85" cy="445.37" r="4" fill="#7b5ea7" opacity="0.78"><title>floor-distraction 0.006,-0.167%</title></circle>
<circle cx="86.85" cy="462.78" r="4" fill="#7b5ea7" opacity="0.78"><title>low-profile 0.046,-0.7%</title></circle>
<circle cx="80" cy="438.84" r="4" fill="#7b5ea7" opacity="0.78"><title>pit-boss-bribe 0,0.033%</title></circle>
<circle cx="80.3" cy="443.19" r="4" fill="#7b5ea7" opacity="0.78"><title>quiet-dealer 0.002,-0.1%</title></circle>
<circle cx="120.07" cy="294.05" r="4" fill="#7b5ea7" opacity="0.78"><title>soft-footsteps 0.267,4.467%</title></circle>
<circle cx="80" cy="433.39" r="4" fill="#7b5ea7" opacity="0.78"><title>surveillance-loop 0,0.2%</title></circle>
<circle cx="88.59" cy="466.05" r="4" fill="#7b5ea7" opacity="0.78"><title>add-nine 0.057,-0.8%</title></circle>
<circle cx="80" cy="443.19" r="4" fill="#7b5ea7" opacity="0.78"><title>eight-stack 0,-0.1%</title></circle>
<circle cx="97.89" cy="463.87" r="4" fill="#7b5ea7" opacity="0.78"><title>marked-nine 0.119,-0.733%</title></circle>
<circle cx="80" cy="439.92" r="4" fill="#7b5ea7" opacity="0.78"><title>nine-engine 0,0%</title></circle>
<circle cx="80.7" cy="452.99" r="4" fill="#7b5ea7" opacity="0.78"><title>nine-worship 0.005,-0.4%</title></circle>
<circle cx="80" cy="426.86" r="4" fill="#7b5ea7" opacity="0.78"><title>natural-bonus 0,0.4%</title></circle>
<circle cx="80" cy="431.22" r="4" fill="#7b5ea7" opacity="0.78"><title>natural-comp 0,0.267%</title></circle>
<circle cx="80" cy="424.68" r="4" fill="#7b5ea7" opacity="0.78"><title>natural-read 0,0.467%</title></circle>
<circle cx="80" cy="437.75" r="4" fill="#7b5ea7" opacity="0.78"><title>perfect-nine 0,0.067%</title></circle>
<circle cx="80" cy="448.63" r="4" fill="#7b5ea7" opacity="0.78"><title>snap-nine 0,-0.267%</title></circle>
<circle cx="80" cy="434.48" r="4" fill="#7b5ea7" opacity="0.78"><title>matchbook 0,0.167%</title></circle>
<circle cx="80" cy="446.46" r="4" fill="#7b5ea7" opacity="0.78"><title>pair-hunter 0,-0.2%</title></circle>
<circle cx="80" cy="438.84" r="4" fill="#7b5ea7" opacity="0.78"><title>split-pocket 0,0.033%</title></circle>
<circle cx="80" cy="441.01" r="4" fill="#7b5ea7" opacity="0.78"><title>twin-engine 0,-0.033%</title></circle>
<circle cx="80" cy="431.22" r="4" fill="#7b5ea7" opacity="0.78"><title>twin-signal 0,0.267%</title></circle>
<circle cx="80" cy="437.75" r="4" fill="#7b5ea7" opacity="0.78"><title>break-pattern 0,0.067%</title></circle>
<circle cx="89.54" cy="464.96" r="4" fill="#7b5ea7" opacity="0.78"><title>countertrend 0.064,-0.767%</title></circle>
<circle cx="102.24" cy="446.46" r="4" fill="#7b5ea7" opacity="0.78"><title>player-tempo 0.148,-0.2%</title></circle>
<circle cx="89.24" cy="442.1" r="4" fill="#7b5ea7" opacity="0.78"><title>punto-insurance 0.062,-0.067%</title></circle>
<circle cx="151.65" cy="459.52" r="4" fill="#7b5ea7" opacity="0.78"><title>punto-strike 0.478,-0.6%</title></circle>
<circle cx="103.98" cy="425.77" r="4" fill="#7b5ea7" opacity="0.78"><title>reversal-read 0.16,0.433%</title></circle>
<circle cx="82.45" cy="405.09" r="4" fill="#7b5ea7" opacity="0.78"><title>sharp-turn 0.016,1.067%</title></circle>
<circle cx="415.09" cy="482.38" r="4" fill="#7b5ea7" opacity="0.78"><title>side-step 2.235,-1.3%</title></circle>
<circle cx="80.95" cy="450.81" r="4" fill="#7b5ea7" opacity="0.78"><title>underdog-side 0.006,-0.333%</title></circle>
<circle cx="80" cy="436.66" r="4" fill="#7b5ea7" opacity="0.78"><title>cold-read 0,0.1%</title></circle>
<circle cx="80.3" cy="442.1" r="4" fill="#7b5ea7" opacity="0.78"><title>house-static 0.002,-0.067%</title></circle>
<circle cx="80" cy="429.04" r="4" fill="#7b5ea7" opacity="0.78"><title>opponent-tax 0,0.333%</title></circle>
<circle cx="80" cy="458.43" r="4" fill="#7b5ea7" opacity="0.78"><title>table-chat 0,-0.567%</title></circle>
<circle cx="80" cy="441.01" r="4" fill="#7b5ea7" opacity="0.78"><title>tempo-theft 0,-0.033%</title></circle>
<circle cx="81.1" cy="449.72" r="4" fill="#7b5ea7" opacity="0.78"><title>dead-heat 0.007,-0.3%</title></circle>
<circle cx="92.99" cy="408.35" r="4" fill="#7b5ea7" opacity="0.78"><title>equalizer 0.087,0.967%</title></circle>
<circle cx="80" cy="439.92" r="4" fill="#7b5ea7" opacity="0.78"><title>final-hand-tie 0,0%</title></circle>
<circle cx="80.25" cy="426.86" r="4" fill="#7b5ea7" opacity="0.78"><title>jackpot-discipline 0.002,0.4%</title></circle>
<circle cx="80" cy="443.19" r="4" fill="#7b5ea7" opacity="0.78"><title>longshot-ledger 0,-0.1%</title></circle>
<circle cx="85.8" cy="413.8" r="4" fill="#7b5ea7" opacity="0.78"><title>mirror-bet 0.039,0.8%</title></circle>
<circle cx="100.54" cy="432.3" r="4" fill="#7b5ea7" opacity="0.78"><title>split-signal 0.137,0.233%</title></circle>
<circle cx="80" cy="439.92" r="4" fill="#7b5ea7" opacity="0.78"><title>tie-master 0,0%</title></circle>
<circle cx="122.37" cy="448.63" r="4" fill="#7b5ea7" opacity="0.78"><title>tie-whisperer 0.283,-0.267%</title></circle>
<circle cx="98.54" cy="442.1" r="4" fill="#7b5ea7" opacity="0.78"><title>banker-forecast 0.124,-0.067%</title></circle>
<circle cx="80" cy="442.1" r="4" fill="#7b5ea7" opacity="0.78"><title>boss-scout 0,-0.067%</title></circle>
<circle cx="177.74" cy="463.87" r="4" fill="#7b5ea7" opacity="0.78"><title>dealer-glance 0.652,-0.733%</title></circle>
<circle cx="82.45" cy="434.48" r="4" fill="#7b5ea7" opacity="0.78"><title>deep-read 0.016,0.167%</title></circle>
<circle cx="80" cy="443.19" r="4" fill="#7b5ea7" opacity="0.78"><title>face-down-count 0,-0.1%</title></circle>
<circle cx="273.18" cy="438.84" r="4" fill="#7b5ea7" opacity="0.78"><title>pattern-memory 1.289,0.033%</title></circle>
<circle cx="235.9" cy="455.16" r="4" fill="#7b5ea7" opacity="0.78"><title>soft-peek 1.04,-0.467%</title></circle>
<circle cx="80" cy="439.92" r="4" fill="#7b5ea7" opacity="0.78"><title>third-card-forecas 0,0%</title></circle>
<circle cx="81.95" cy="434.48" r="4" fill="#7b5ea7" opacity="0.78"><title>tie-forecast 0.013,0.167%</title></circle>
<text x="450" y="538" font-family="Segoe UI, Arial" font-size="13" fill="#26313f" text-anchor="middle">frequency / acquisition probability</text>
<text x="18" y="280" font-family="Segoe UI, Arial" font-size="13" fill="#26313f" text-anchor="middle" transform="rotate(-90 18 280)">impact / completion</text>
</svg>
