<svg xmlns="http://www.w3.org/2000/svg" width="1100" height="520" viewBox="0 0 1100 520">
<rect width="100%" height="100%" fill="#f7f4ee"/>
<text x="30" y="34" font-family="Segoe UI, Arial" font-size="22" fill="#1c2430">Completion Rate By Policy</text>
<line x1="80" y1="410" x2="1070" y2="410" stroke="#30343b" stroke-width="1"/>
<rect x="111.68" y="347" width="134.64" height="63" fill="#2f7d6d" rx="2"/>
<text x="179" y="438" font-family="Segoe UI, Arial" font-size="11" fill="#26313f" text-anchor="middle" transform="rotate(-35 179 438)">random</text>
<text x="179" y="342" font-family="Segoe UI, Arial" font-size="10" fill="#26313f" text-anchor="middle">0.9%</text>
<rect x="309.68" y="74" width="134.64" height="336" fill="#2f7d6d" rx="2"/>
<text x="377" y="438" font-family="Segoe UI, Arial" font-size="11" fill="#26313f" text-anchor="middle" transform="rotate(-35 377 438)">novice</text>
<text x="377" y="69" font-family="Segoe UI, Arial" font-size="10" fill="#26313f" text-anchor="middle">4.8%</text>
<rect x="507.68" y="396" width="134.64" height="14" fill="#2f7d6d" rx="2"/>
<text x="575" y="438" font-family="Segoe UI, Arial" font-size="11" fill="#26313f" text-anchor="middle" transform="rotate(-35 575 438)">greedy</text>
<text x="575" y="391" font-family="Segoe UI, Arial" font-size="10" fill="#26313f" text-anchor="middle">0.2%</text>
<rect x="705.68" y="74" width="134.64" height="336" fill="#2f7d6d" rx="2"/>
<text x="773" y="438" font-family="Segoe UI, Arial" font-size="11" fill="#26313f" text-anchor="middle" transform="rotate(-35 773 438)">risk_aware</text>
<text x="773" y="69" font-family="Segoe UI, Arial" font-size="10" fill="#26313f" text-anchor="middle">4.8%</text>
<rect x="903.68" y="67" width="134.64" height="343" fill="#2f7d6d" rx="2"/>
<text x="971" y="438" font-family="Segoe UI, Arial" font-size="11" fill="#26313f" text-anchor="middle" transform="rotate(-35 971 438)">optimized</text>
<text x="971" y="62" font-family="Segoe UI, Arial" font-size="10" fill="#26313f" text-anchor="middle">4.9%</text>
</svg>
