<svg xmlns="http://www.w3.org/2000/svg" width="1100" height="520" viewBox="0 0 1100 520">
<rect width="100%" height="100%" fill="#f7f4ee"/>
<text x="30" y="34" font-family="Segoe UI, Arial" font-size="22" fill="#1c2430">Failure Hazard By Stage</text>
<line x1="80" y1="410" x2="1070" y2="410" stroke="#30343b" stroke-width="1"/>
<rect x="95.84" y="359.2" width="67.32" height="50.8" fill="#2f7d6d" rx="2"/>
<text x="129.5" y="438" font-family="Segoe UI, Arial" font-size="11" fill="#26313f" text-anchor="middle" transform="rotate(-35 129.5 438)">S1</text>
<text x="129.5" y="354.2" font-family="Segoe UI, Arial" font-size="10" fill="#26313f" text-anchor="middle">10.5%</text>
<rect x="194.84" y="381.35" width="67.32" height="28.65" fill="#2f7d6d" rx="2"/>
<text x="228.5" y="438" font-family="Segoe UI, Arial" font-size="11" fill="#26313f" text-anchor="middle" transform="rotate(-35 228.5 438)">S2</text>
<text x="228.5" y="376.35" font-family="Segoe UI, Arial" font-size="10" fill="#26313f" text-anchor="middle">5.922%</text>
<rect x="293.84" y="351.96" width="67.32" height="58.04" fill="#2f7d6d" rx="2"/>
<text x="327.5" y="438" font-family="Segoe UI, Arial" font-size="11" fill="#26313f" text-anchor="middle" transform="rotate(-35 327.5 438)">S3</text>
<text x="327.5" y="346.96" font-family="Segoe UI, Arial" font-size="10" fill="#26313f" text-anchor="middle">11.995%</text>
<rect x="392.84" y="357.77" width="67.32" height="52.23" fill="#2f7d6d" rx="2"/>
<text x="426.5" y="438" font-family="Segoe UI, Arial" font-size="11" fill="#26313f" text-anchor="middle" transform="rotate(-35 426.5 438)">S4</text>
<text x="426.5" y="352.77" font-family="Segoe UI, Arial" font-size="10" fill="#26313f" text-anchor="middle">10.796%</text>
<rect x="491.84" y="348.52" width="67.32" height="61.48" fill="#2f7d6d" rx="2"/>
<text x="525.5" y="438" font-family="Segoe UI, Arial" font-size="11" fill="#26313f" text-anchor="middle" transform="rotate(-35 525.5 438)">S5</text>
<text x="525.5" y="343.52" font-family="Segoe UI, Arial" font-size="10" fill="#26313f" text-anchor="middle">12.708%</text>
<rect x="590.84" y="353.38" width="67.32" height="56.62" fill="#2f7d6d" rx="2"/>
<text x="624.5" y="438" font-family="Segoe UI, Arial" font-size="11" fill="#26313f" text-anchor="middle" transform="rotate(-35 624.5 438)">S6</text>
<text x="624.5" y="348.38" font-family="Segoe UI, Arial" font-size="10" fill="#26313f" text-anchor="middle">11.702%</text>
<rect x="689.84" y="240.81" width="67.32" height="169.19" fill="#2f7d6d" rx="2"/>
<text x="723.5" y="438" font-family="Segoe UI, Arial" font-size="11" fill="#26313f" text-anchor="middle" transform="rotate(-35 723.5 438)">S7</text>
<text x="723.5" y="235.81" font-family="Segoe UI, Arial" font-size="10" fill="#26313f" text-anchor="middle">34.969%</text>
<rect x="788.84" y="344.66" width="67.32" height="65.34" fill="#2f7d6d" rx="2"/>
<text x="822.5" y="438" font-family="Segoe UI, Arial" font-size="11" fill="#26313f" text-anchor="middle" transform="rotate(-35 822.5 438)">S8</text>
<text x="822.5" y="339.66" font-family="Segoe UI, Arial" font-size="10" fill="#26313f" text-anchor="middle">13.505%</text>
<rect x="887.84" y="280.24" width="67.32" height="129.76" fill="#2f7d6d" rx="2"/>
<text x="921.5" y="438" font-family="Segoe UI, Arial" font-size="11" fill="#26313f" text-anchor="middle" transform="rotate(-35 921.5 438)">S9</text>
<text x="921.5" y="275.24" font-family="Segoe UI, Arial" font-size="10" fill="#26313f" text-anchor="middle">26.82%</text>
<rect x="986.84" y="60" width="67.32" height="350" fill="#2f7d6d" rx="2"/>
<text x="1020.5" y="438" font-family="Segoe UI, Arial" font-size="11" fill="#26313f" text-anchor="middle" transform="rotate(-35 1020.5 438)">S10</text>
<text x="1020.5" y="55" font-family="Segoe UI, Arial" font-size="10" fill="#26313f" text-anchor="middle">72.34%</text>
</svg>
