<svg xmlns="http://www.w3.org/2000/svg" width="1100" height="520" viewBox="0 0 1100 520">
<rect width="100%" height="100%" fill="#f7f4ee"/>
<text x="30" y="34" font-family="Segoe UI, Arial" font-size="22" fill="#1c2430">Mechanic Marginal Effects</text>
<line x1="80" y1="235" x2="1070" y2="235" stroke="#30343b" stroke-width="1"/>
<rect x="89.9" y="235" width="42.08" height="175" fill="#b85c4d" rx="2"/>
<text x="110.94" y="438" font-family="Segoe UI, Arial" font-size="11" fill="#26313f" text-anchor="middle" transform="rotate(-35 110.94 438)">emergency-marker</text>
<text x="110.94" y="230" font-family="Segoe UI, Arial" font-size="10" fill="#26313f" text-anchor="middle">-6.4%</text>
<rect x="151.78" y="147.5" width="42.08" height="87.5" fill="#2f7d6d" rx="2"/>
<text x="172.81" y="438" font-family="Segoe UI, Arial" font-size="11" fill="#26313f" text-anchor="middle" transform="rotate(-35 172.81 438)">soft-footsteps</text>
<text x="172.81" y="142.5" font-family="Segoe UI, Arial" font-size="10" fill="#26313f" text-anchor="middle">3.2%</text>
<rect x="213.65" y="158.44" width="42.08" height="76.56" fill="#2f7d6d" rx="2"/>
<text x="234.69" y="438" font-family="Segoe UI, Arial" font-size="11" fill="#26313f" text-anchor="middle" transform="rotate(-35 234.69 438)">comp-points</text>
<text x="234.69" y="153.44" font-family="Segoe UI, Arial" font-size="10" fill="#26313f" text-anchor="middle">2.8%</text>
<rect x="275.53" y="235" width="42.08" height="65.63" fill="#b85c4d" rx="2"/>
<text x="296.56" y="438" font-family="Segoe UI, Arial" font-size="11" fill="#26313f" text-anchor="middle" transform="rotate(-35 296.56 438)">banker-anchor</text>
<text x="296.56" y="230" font-family="Segoe UI, Arial" font-size="10" fill="#26313f" text-anchor="middle">-2.4%</text>
<rect x="337.4" y="235" width="42.08" height="65.63" fill="#b85c4d" rx="2"/>
<text x="358.44" y="438" font-family="Segoe UI, Arial" font-size="11" fill="#26313f" text-anchor="middle" transform="rotate(-35 358.44 438)">commission-dodge</text>
<text x="358.44" y="230" font-family="Segoe UI, Arial" font-size="10" fill="#26313f" text-anchor="middle">-2.4%</text>
<rect x="399.28" y="169.38" width="42.08" height="65.63" fill="#2f7d6d" rx="2"/>
<text x="420.31" y="438" font-family="Segoe UI, Arial" font-size="11" fill="#26313f" text-anchor="middle" transform="rotate(-35 420.31 438)">lucky-chip</text>
<text x="420.31" y="164.38" font-family="Segoe UI, Arial" font-size="10" fill="#26313f" text-anchor="middle">2.4%</text>
<rect x="461.15" y="169.38" width="42.08" height="65.63" fill="#2f7d6d" rx="2"/>
<text x="482.19" y="438" font-family="Segoe UI, Arial" font-size="11" fill="#26313f" text-anchor="middle" transform="rotate(-35 482.19 438)">interest-ledger</text>
<text x="482.19" y="164.38" font-family="Segoe UI, Arial" font-size="10" fill="#26313f" text-anchor="middle">2.4%</text>
<rect x="523.03" y="235" width="42.08" height="54.69" fill="#b85c4d" rx="2"/>
<text x="544.06" y="438" font-family="Segoe UI, Arial" font-size="11" fill="#26313f" text-anchor="middle" transform="rotate(-35 544.06 438)">last-dollar</text>
<text x="544.06" y="230" font-family="Segoe UI, Arial" font-size="10" fill="#26313f" text-anchor="middle">-2%</text>
<rect x="584.9" y="235" width="42.08" height="32.81" fill="#b85c4d" rx="2"/>
<text x="605.94" y="438" font-family="Segoe UI, Arial" font-size="11" fill="#26313f" text-anchor="middle" transform="rotate(-35 605.94 438)">dealers-nod</text>
<text x="605.94" y="230" font-family="Segoe UI, Arial" font-size="10" fill="#26313f" text-anchor="middle">-1.2%</text>
<rect x="646.78" y="213.13" width="42.08" height="21.88" fill="#2f7d6d" rx="2"/>
<text x="667.81" y="438" font-family="Segoe UI, Arial" font-size="11" fill="#26313f" text-anchor="middle" transform="rotate(-35 667.81 438)">banco-press</text>
<text x="667.81" y="208.13" font-family="Segoe UI, Arial" font-size="10" fill="#26313f" text-anchor="middle">0.8%</text>
<rect x="708.65" y="224.06" width="42.08" height="10.94" fill="#2f7d6d" rx="2"/>
<text x="729.69" y="438" font-family="Segoe UI, Arial" font-size="11" fill="#26313f" text-anchor="middle" transform="rotate(-35 729.69 438)">banker-lock</text>
<text x="729.69" y="219.06" font-family="Segoe UI, Arial" font-size="10" fill="#26313f" text-anchor="middle">0.4%</text>
<rect x="770.53" y="235" width="42.08" height="10.94" fill="#b85c4d" rx="2"/>
<text x="791.56" y="438" font-family="Segoe UI, Arial" font-size="11" fill="#26313f" text-anchor="middle" transform="rotate(-35 791.56 438)">high-roller</text>
<text x="791.56" y="230" font-family="Segoe UI, Arial" font-size="10" fill="#26313f" text-anchor="middle">-0.4%</text>
<rect x="832.4" y="235" width="42.08" height="10.94" fill="#b85c4d" rx="2"/>
<text x="853.44" y="438" font-family="Segoe UI, Arial" font-size="11" fill="#26313f" text-anchor="middle" transform="rotate(-35 853.44 438)">low-profile</text>
<text x="853.44" y="230" font-family="Segoe UI, Arial" font-size="10" fill="#26313f" text-anchor="middle">-0.4%</text>
<rect x="894.28" y="235" width="42.08" height="10.94" fill="#b85c4d" rx="2"/>
<text x="915.31" y="438" font-family="Segoe UI, Arial" font-size="11" fill="#26313f" text-anchor="middle" transform="rotate(-35 915.31 438)">press-edge</text>
<text x="915.31" y="230" font-family="Segoe UI, Arial" font-size="10" fill="#26313f" text-anchor="middle">-0.4%</text>
<rect x="956.15" y="224.06" width="42.08" height="10.94" fill="#2f7d6d" rx="2"/>
<text x="977.19" y="438" font-family="Segoe UI, Arial" font-size="11" fill="#26313f" text-anchor="middle" transform="rotate(-35 977.19 438)">soft-cut</text>
<text x="977.19" y="219.06" font-family="Segoe UI, Arial" font-size="10" fill="#26313f" text-anchor="middle">0.4%</text>
<rect x="1018.03" y="235" width="42.08" height="1" fill="#2f7d6d" rx="2"/>
<text x="1039.06" y="438" font-family="Segoe UI, Arial" font-size="11" fill="#26313f" text-anchor="middle" transform="rotate(-35 1039.06 438)">boss-bounty</text>
<text x="1039.06" y="230" font-family="Segoe UI, Arial" font-size="10" fill="#26313f" text-anchor="middle">0%</text>
</svg>
